HIERARCHY
ROOT RootJoint
{
    OFFSET   0.000000   0.000000   0.000000
    CHANNELS 6 Xposition Yposition Zposition Xrotation Yrotation Zrotation
    JOINT pelvis_lowerback
    {
        OFFSET   0.000000   0.093605   0.000000
        CHANNELS 3 Xrotation Yrotation Zrotation
        JOINT lowerback_torso
        {
            OFFSET   0.000000   0.100000   0.000000
            CHANNELS 3 Xrotation Yrotation Zrotation
            JOINT torso_head
            {
                OFFSET   0.000000   0.282350   0.000000
                CHANNELS 3 Xrotation Yrotation Zrotation
                End Site
                {
                    OFFSET   0.000000   0.192650   0.000000
                }
            }
            JOINT rTorso_Clavicle
            {
                OFFSET  -0.001000   0.157500   0.000000
                CHANNELS 3 Xrotation Yrotation Zrotation
                JOINT rShoulder
                {
                    OFFSET  -0.117647   0.000000   0.000000
                    CHANNELS 3 Xrotation Yrotation Zrotation
                    JOINT rElbow
                    {
                        OFFSET  -0.245000   0.000000   0.000000
                        CHANNELS 3 Xrotation Yrotation Zrotation
                        JOINT rWrist
                        {
                            OFFSET  -0.240000   0.000000   0.000000
                            CHANNELS 3 Xrotation Yrotation Zrotation
                            End Site
                            {
                                OFFSET  -0.116353  -0.002500   0.000000
                            }
                        }
                    }
                }
            }
            JOINT lTorso_Clavicle
            {
                OFFSET   0.001000   0.157500   0.000000
                CHANNELS 3 Xrotation Yrotation Zrotation
                JOINT lShoulder
                {
                    OFFSET   0.117647   0.000000   0.000000
                    CHANNELS 3 Xrotation Yrotation Zrotation
                    JOINT lElbow
                    {
                        OFFSET   0.245000   0.000000   0.000000
                        CHANNELS 3 Xrotation Yrotation Zrotation
                        JOINT lWrist
                        {
                            OFFSET   0.240000   0.000000   0.000000
                            CHANNELS 3 Xrotation Yrotation Zrotation
                            End Site
                            {
                                OFFSET   0.116353  -0.002500   0.000000
                            }
                        }
                    }
                }
            }
        }
    }
    JOINT rHip
    {
        OFFSET  -0.100000  -0.051395   0.000000
        CHANNELS 3 Xrotation Yrotation Zrotation
        JOINT rKnee
        {
            OFFSET   0.000000  -0.410000   0.000000
            CHANNELS 3 Xrotation Yrotation Zrotation
            JOINT rAnkle
            {
                OFFSET   0.000000  -0.390000   0.000000
                CHANNELS 3 Xrotation Yrotation Zrotation
                JOINT rToeJoint
                {
                    OFFSET   0.000000  -0.050000   0.130000
                    CHANNELS 3 Xrotation Yrotation Zrotation
                    End Site
                    {
                        OFFSET  -0.010000   0.002000   0.060000
                    }
                }
            }
        }
    }
    JOINT lHip
    {
        OFFSET   0.100000  -0.051395   0.000000
        CHANNELS 3 Xrotation Yrotation Zrotation
        JOINT lKnee
        {
            OFFSET   0.000000  -0.410000   0.000000
            CHANNELS 3 Xrotation Yrotation Zrotation
            JOINT lAnkle
            {
                OFFSET   0.000000  -0.390000   0.000000
                CHANNELS 3 Xrotation Yrotation Zrotation
                JOINT lToeJoint
                {
                    OFFSET   0.000000  -0.050000   0.130000
                    CHANNELS 3 Xrotation Yrotation Zrotation
                    End Site
                    {
                        OFFSET   0.010000   0.002000   0.060000
                    }
                }
            }
        }
    }
}
MOTION
Frames: 10
Frame Time:   0.008333
 -2.616345   0.930624   3.944913 -94.757599  73.730087  82.164141  10.287779  -2.098024   2.907176  -1.422047  -3.209692   5.210307   1.816096  -1.572363   3.441844  -3.432676   0.082241  -8.324657 -26.125567   3.639249  18.009758   0.101185  82.699591  -0.095454   2.494008   8.240573 -18.718660  -4.736827  -8.517662   7.647983 -30.227970  -7.549613 -24.636961   0.121585 -85.951760   0.112856  -0.802049  -9.908310  19.715164 -48.634888  -4.903138  -6.319601 106.858530   0.026701   0.009702  -3.624436  -6.141851   8.569785  -1.839545   0.000976  -0.000765   8.167779  -4.733708   9.851932  17.714160  -0.001138  -0.011222  -7.765386  -7.026891   1.252804  -0.621043  -0.000942  -0.000212
 -2.615672   0.932064   3.944707 -97.021984  73.567731  83.997240  10.624334  -2.298215   3.189169  -1.328723  -3.212417   5.288951   1.849413  -1.616516   3.495129  -3.376907  -0.387000  -8.027666 -25.540625   3.120609  18.217004   0.087809  82.823955  -0.082781   2.571725   8.295729 -18.289856  -4.566378  -8.231685   7.457042 -29.788345  -7.411553 -25.330750   0.132488 -86.322664   0.122929  -0.856349  -9.736624  19.331019 -50.651728  -5.133104  -6.560401 107.494516   0.022756   0.008182  -3.847963  -5.702078   8.858343  -1.964410   0.001096  -0.001549   8.675970  -4.770728  10.396722  17.062188  -0.001057  -0.011711  -7.464418  -7.509003   1.145403  -0.617306  -0.000751  -0.000169
 -2.614938   0.933445   3.944512 -99.104567  73.364518  85.651768  10.981204  -2.478880   3.485625  -1.221119  -3.209283   5.368936   1.882473  -1.659735   3.546081  -3.328957  -0.849792  -7.737414 -24.994126   2.610848  18.411482   0.075319  82.921628  -0.070966   2.618392   8.270871 -17.920411  -4.393519  -7.932181   7.245644 -29.360757  -7.263300 -25.990859   0.142671 -86.674024   0.132634  -0.901507  -9.599085  18.973409 -52.670883  -5.376173  -6.842696 108.114487   0.019184   0.006877  -4.058274  -5.289576   9.131457  -2.083646   0.001216  -0.002086   9.209011  -4.787599  10.936434  16.418989  -0.000944  -0.011902  -7.176242  -7.961333   1.040245  -0.610930  -0.000596  -0.000135
 -2.614121   0.934753   3.944364 -101.059122  73.121647  87.178380  11.345963  -2.646983   3.783840  -1.094075  -3.208593   5.455887   1.917661  -1.699996   3.596241  -3.281617  -1.297947  -7.457261 -24.479465   2.122127  18.596934   0.064392  83.005422  -0.060643   2.647821   8.201242 -17.580914  -4.222625  -7.640732   7.032539 -28.951164  -7.116963 -26.612715   0.150982 -86.997988   0.140829  -0.949118  -9.452801  18.626935 -54.641759  -5.596313  -7.137515 108.697984   0.016220   0.005826  -4.257185  -4.904606   9.387900  -2.199475   0.001280  -0.002468   9.759054  -4.798009  11.475900  15.808586  -0.000802  -0.011799  -6.912450  -8.388924   0.942935  -0.604393  -0.000473  -0.000108
 -2.613211   0.935985   3.944269 -102.898831  72.848455  88.593618  11.708174  -2.804948   4.076699  -0.955607  -3.212025   5.547296   1.954085  -1.737481   3.644717  -3.233789  -1.726251  -7.187897 -23.994452   1.658713  18.775208   0.054976  83.079778  -0.051758   2.668461   8.110358 -17.255973  -4.056758  -7.364744   6.825094 -28.562402  -6.978818 -27.197227   0.157368 -87.297587   0.147367  -0.999321  -9.296476  18.286542 -56.543076  -5.784958  -7.434895 109.241561   0.013821   0.005001  -4.445316  -4.545814   9.628016  -2.311373   0.001282  -0.002728  10.315901  -4.805366  12.012467  15.236463  -0.000649  -0.011469  -6.675522  -8.795110   0.854427  -0.598514  -0.000375  -0.000087
 -2.612209   0.937143   3.944227 -104.623636  72.554571  89.901122  12.060121  -2.953219   4.360028  -0.813562  -3.218873   5.640171   1.990469  -1.772405   3.690842  -3.185871  -2.131917  -6.930328 -23.537964   1.222313  18.946708   0.046907  83.147043  -0.044149   2.684501   8.010259 -16.941016  -3.897848  -7.106516   6.626612 -28.195617  -6.851215 -27.745777   0.161973 -87.575818   0.152315  -1.049781  -9.136756  17.952812 -58.363456  -5.942904  -7.728839 109.747199   0.011878   0.004358  -4.623065  -4.211514   9.852578  -2.418754   0.001237  -0.002889  10.871648  -4.809953  12.542442  14.701794  -0.000497  -0.010980  -6.464782  -9.180954   0.774134  -0.593524  -0.000298  -0.000069
 -2.611121   0.938228   3.944230 -106.232353  72.248749  91.102896  12.396545  -3.091827   4.631271  -0.673897  -3.227885   5.732096   2.025838  -1.804963   3.734329  -3.138669  -2.513746  -6.685664 -23.109146   0.813333  19.111192   0.040010  83.208689  -0.037648   2.698176   7.907534 -16.635607  -3.747074  -6.866144   6.438728 -27.851021  -6.734616 -28.259792   0.165045 -87.834958   0.155860  -1.098757  -8.978903  17.627925 -60.096380  -6.073917  -8.014965 110.218427   0.010289   0.003859  -4.790776  -3.899998  10.062476  -2.521126   0.001160  -0.002967  11.419816  -4.811349  13.062203  14.202004  -0.000354  -0.010385  -6.278326  -9.546726   0.701117  -0.589436  -0.000237  -0.000055
 -2.609964   0.939233   3.944047 -107.894273  71.996267  92.402087  12.675957  -3.280169   4.924276  -0.583810  -3.260021   5.790560   2.057682  -1.873548   3.777980  -3.112065  -2.827375  -6.462270 -22.729341   0.392524  19.322554   0.024995  82.988325  -0.023750   2.737943   7.979168 -16.322191  -3.648389  -6.500582   6.237937 -27.448913  -6.615275 -29.064482   0.177488 -88.145211   0.167790  -1.184039  -8.846190  17.351626 -61.899402  -6.233637  -8.471813 110.764583   0.008625   0.003220  -4.973935  -3.625564  10.172484  -2.541552   0.000953  -0.002486  11.870243  -4.824239  13.530629  13.734015  -0.000300  -0.009901  -6.110945  -9.937686   0.586246  -0.571541  -0.000175  -0.000044
 -2.608744   0.940174   3.943826 -109.414547  71.728659  93.572974  12.954793  -3.451664   5.223167  -0.488253  -3.288498   5.846809   2.080733  -1.940342   3.821636  -3.084956  -3.123807  -6.240008 -22.371214  -0.015535  19.526149   0.013452  82.755291  -0.013146   2.735615   7.915749 -16.035110  -3.526949  -6.146610   5.995477 -27.046697  -6.492798 -29.851074   0.194219 -88.436936   0.184197  -1.268738  -8.727683  17.076580 -63.646560  -6.368396  -8.942278 111.307793   0.007178   0.002653  -5.145041  -3.369561  10.276096  -2.565452   0.000794  -0.002109  12.324741  -4.823700  13.980172  13.287044  -0.000258  -0.009361  -5.961798 -10.307994   0.473286  -0.552569  -0.000125  -0.000035
 -2.607487   0.941053   3.943607 -110.804019  71.450461  94.622810  13.231944  -3.608184   5.516357  -0.382858  -3.314552   5.905493   2.101089  -2.002734   3.865448  -3.055896  -3.405882  -6.020966 -22.032038  -0.403139  19.722958   0.005017  82.531166  -0.005419   2.718065   7.802992 -15.760367  -3.396561  -5.811724   5.742457 -26.655925  -6.374341 -30.600264   0.215144 -88.705333   0.205081  -1.355813  -8.595586  16.790553 -65.318475  -6.474807  -9.400467 111.826248   0.005988   0.002208  -5.305368  -3.130782  10.373300  -2.591165   0.000668  -0.001811  12.776304  -4.815104  14.416341  12.869644  -0.000214  -0.008753  -5.832387 -10.655623   0.367424  -0.534585  -0.000086  -0.000028
